# xmcd CD database file
#
# Track frame offsets:
#	150
#	17153
#	30635
#	51240
#	66335
#	95368
#	117308
#	144613
#	168769
#	186635
#	207035
#	226300
#
# Disc length: 3364 seconds
#
# Revision: 0
# Processed by: cddbd v1.5.2PL0 Copyright (c) Steve Scherf et al.
# Submitted via: CDex 1.51
#
DISCID=a70d220c
DTITLE=Apropos Jazz - Up To Now
DYEAR=1900
DGENRE=Jazz
TTITLE0=Charade
TTITLE1=The Telephone Song
TTITLE2=Dat Dere
TTITLE3=Joy Spring
TTITLE4=The Nearness of You
TTITLE5=Good Bait
TTITLE6=I'm All Smiles
TTITLE7=Yesterdays
TTITLE8=Fascinating Rhythm
TTITLE9=Señor Blues
TTITLE10=Overjoyed
TTITLE11=What Are You Doing For The Rest Of Your Life
EXTD=
EXTT0=
EXTT1=
EXTT2=
EXTT3=
EXTT4=
EXTT5=
EXTT6=
EXTT7=
EXTT8=
EXTT9=
EXTT10=
EXTT11=
PLAYORDER=
